<svg width="291" height="73" viewBox="0 0 291 73" fill="none" xmlns="http://www.w3.org/2000/svg">
<path d="M54.9152 61H35.1872V26.728H54.9152V32.68H42.4352V40.216H54.0512V46.168H42.4352V55H54.9152V61ZM66.8466 47.608L58.3986 34.792H66.5106L71.5986 43.144L76.7346 34.792H84.8466L76.3026 47.608L85.2306 61H77.1186L71.5986 52.024L66.0786 61H57.9666L66.8466 47.608ZM103.813 34.312C106.757 34.312 109.141 35.464 110.965 37.768C112.789 40.04 113.701 43.4 113.701 47.848C113.701 50.824 113.269 53.336 112.405 55.384C111.541 57.4 110.357 58.92 108.853 59.944C107.349 60.968 105.605 61.48 103.621 61.48C102.373 61.48 101.285 61.32 100.357 61C99.4606 60.68 98.6926 60.264 98.0526 59.752C97.4126 59.24 96.8526 58.696 96.3726 58.12H95.9886C96.1166 58.728 96.2126 59.368 96.2766 60.04C96.3406 60.68 96.3726 61.32 96.3726 61.96V72.52H89.2206V34.792H95.0286L96.0366 38.2H96.3726C96.8526 37.496 97.4286 36.856 98.1006 36.28C98.7726 35.672 99.5726 35.192 100.501 34.84C101.461 34.488 102.565 34.312 103.813 34.312ZM101.509 40.024C100.261 40.024 99.2686 40.28 98.5326 40.792C97.7966 41.304 97.2526 42.088 96.9006 43.144C96.5806 44.168 96.4046 45.464 96.3726 47.032V47.8C96.3726 49.496 96.5326 50.936 96.8526 52.12C97.1726 53.272 97.7166 54.152 98.4846 54.76C99.2526 55.368 100.293 55.672 101.605 55.672C102.693 55.672 103.589 55.368 104.293 54.76C104.997 54.152 105.525 53.256 105.877 52.072C106.229 50.888 106.405 49.448 106.405 47.752C106.405 45.192 106.005 43.272 105.205 41.992C104.437 40.68 103.205 40.024 101.509 40.024ZM130.396 34.312C132.828 34.312 134.908 34.776 136.636 35.704C138.396 36.632 139.756 37.976 140.716 39.736C141.676 41.496 142.156 43.656 142.156 46.216V49.672H125.26C125.324 51.688 125.916 53.272 127.036 54.424C128.188 55.576 129.772 56.152 131.788 56.152C133.484 56.152 135.02 55.992 136.396 55.672C137.772 55.32 139.196 54.792 140.668 54.088V59.608C139.388 60.248 138.028 60.712 136.588 61C135.18 61.32 133.468 61.48 131.452 61.48C128.828 61.48 126.508 61 124.492 60.04C122.476 59.048 120.892 57.56 119.74 55.576C118.588 53.592 118.012 51.096 118.012 48.088C118.012 45.016 118.524 42.472 119.548 40.456C120.604 38.408 122.06 36.872 123.916 35.848C125.772 34.824 127.932 34.312 130.396 34.312ZM130.444 39.4C129.068 39.4 127.916 39.848 126.988 40.744C126.092 41.64 125.564 43.032 125.404 44.92H135.436C135.436 43.864 135.244 42.92 134.86 42.088C134.508 41.256 133.964 40.6 133.228 40.12C132.492 39.64 131.564 39.4 130.444 39.4ZM162.835 34.312C165.651 34.312 167.907 35.08 169.603 36.616C171.299 38.12 172.147 40.552 172.147 43.912V61H164.995V45.688C164.995 43.8 164.659 42.392 163.987 41.464C163.315 40.504 162.243 40.024 160.771 40.024C158.595 40.024 157.107 40.776 156.307 42.28C155.507 43.752 155.107 45.88 155.107 48.664V61H147.955V34.792H153.427L154.387 38.152H154.771C155.347 37.256 156.051 36.536 156.883 35.992C157.715 35.416 158.643 35 159.667 34.744C160.691 34.456 161.747 34.312 162.835 34.312ZM197.79 53.224C197.79 54.984 197.374 56.488 196.542 57.736C195.71 58.952 194.462 59.88 192.798 60.52C191.134 61.16 189.07 61.48 186.606 61.48C184.782 61.48 183.214 61.352 181.902 61.096C180.59 60.872 179.278 60.488 177.966 59.944V54.04C179.374 54.68 180.894 55.208 182.526 55.624C184.158 56.04 185.598 56.248 186.846 56.248C188.254 56.248 189.246 56.04 189.822 55.624C190.43 55.208 190.734 54.664 190.734 53.992C190.734 53.544 190.606 53.144 190.35 52.792C190.126 52.44 189.614 52.04 188.814 51.592C188.014 51.144 186.766 50.568 185.07 49.864C183.438 49.16 182.094 48.472 181.038 47.8C179.982 47.096 179.198 46.264 178.686 45.304C178.174 44.312 177.918 43.08 177.918 41.608C177.918 39.176 178.862 37.352 180.75 36.136C182.638 34.92 185.15 34.312 188.286 34.312C189.918 34.312 191.47 34.472 192.942 34.792C194.414 35.112 195.934 35.64 197.502 36.376L195.342 41.512C194.478 41.128 193.646 40.792 192.846 40.504C192.046 40.216 191.262 39.992 190.494 39.832C189.758 39.672 188.99 39.592 188.19 39.592C187.134 39.592 186.334 39.736 185.79 40.024C185.278 40.312 185.022 40.744 185.022 41.32C185.022 41.736 185.15 42.12 185.406 42.472C185.694 42.792 186.222 43.144 186.99 43.528C187.79 43.912 188.958 44.424 190.494 45.064C191.998 45.672 193.294 46.312 194.382 46.984C195.47 47.624 196.302 48.44 196.878 49.432C197.486 50.392 197.79 51.656 197.79 53.224Z" fill="#40513B"/>
<path d="M210.513 34.792V61H203.361V34.792H210.513ZM206.961 24.52C208.017 24.52 208.929 24.776 209.697 25.288C210.465 25.768 210.849 26.68 210.849 28.024C210.849 29.336 210.465 30.248 209.697 30.76C208.929 31.272 208.017 31.528 206.961 31.528C205.873 31.528 204.945 31.272 204.177 30.76C203.441 30.248 203.073 29.336 203.073 28.024C203.073 26.68 203.441 25.768 204.177 25.288C204.945 24.776 205.873 24.52 206.961 24.52ZM232.482 40.168H226.29V61H219.138V40.168H215.202V36.712L219.138 34.792V32.872C219.138 30.632 219.506 28.904 220.242 27.688C221.01 26.44 222.082 25.56 223.458 25.048C224.866 24.536 226.514 24.28 228.402 24.28C229.81 24.28 231.074 24.392 232.194 24.616C233.346 24.84 234.274 25.096 234.978 25.384L233.154 30.616C232.61 30.456 232.018 30.312 231.378 30.184C230.738 30.024 230.002 29.944 229.17 29.944C228.178 29.944 227.442 30.248 226.962 30.856C226.514 31.464 226.29 32.232 226.29 33.16V34.792H232.482V40.168ZM232.805 34.792H240.629L245.573 49.528C245.733 50.008 245.861 50.488 245.957 50.968C246.085 51.448 246.181 51.944 246.245 52.456C246.341 52.968 246.405 53.512 246.437 54.088H246.581C246.677 53.256 246.805 52.472 246.965 51.736C247.157 50.968 247.365 50.232 247.589 49.528L252.437 34.792H260.117L249.029 64.36C248.357 66.152 247.477 67.656 246.389 68.872C245.333 70.088 244.101 71 242.693 71.608C241.285 72.216 239.749 72.52 238.085 72.52C237.285 72.52 236.581 72.472 235.973 72.376C235.397 72.312 234.885 72.232 234.437 72.136V66.472C234.789 66.536 235.205 66.6 235.685 66.664C236.197 66.728 236.725 66.76 237.269 66.76C238.261 66.76 239.109 66.552 239.813 66.136C240.549 65.72 241.157 65.144 241.637 64.408C242.117 63.704 242.501 62.936 242.789 62.104L243.221 60.808L232.805 34.792Z" fill="#B3B4B1"/>
<circle cx="44" cy="10" r="10" fill="#F4A18F"/>
</svg>
